<svg xmlns="http://www.w3.org/2000/svg" role="img" viewBox="-5.66 65.34 307.32 132.07"><title>ArgoCon-2022-graphics_color-logo.svg</title><defs><clipPath id="clip-path"><path fill="none" d="M68.523 109.451l-2.465 56.273H29.091l-2.054-56.273"/></clipPath><style>.cls-2{fill:#e9654b}.cls-3{fill:#b6cfea}.cls-6{fill:#ee794b}.cls-12{fill:#010101}.cls-13{fill:#fff}</style></defs><path d="M141.75569 140.79517a2.32915 2.32915 0 0 1-.867 1.82774 2.95535 2.95535 0 0 1-1.992.75 2.59535 2.59535 0 0 1-2.43725-1.64051l-2.812-6.2805h-16.498l-2.81212 6.2805a2.65918 2.65918 0 0 1-1.031 1.242 2.7505 2.7505 0 0 1-1.453.39851 2.98127 2.98127 0 0 1-1.9685-.75 2.30357 2.30357 0 0 1-.8905-1.82774 2.88951 2.88951 0 0 1 .28126-1.21876l12.93588-27.79325a3.02272 3.02272 0 0 1 1.28874-1.4295 3.72849 3.72849 0 0 1 3.70276 0 3.02412 3.02412 0 0 1 1.28873 1.4295l12.98276 27.79325a2.88964 2.88964 0 0 1 .28124 1.21876zm-22.544-10.03h12.37351l-6.18676-13.92zm41.29096-10.45175a2.28846 2.28846 0 0 1 .70327 1.82774 2.554 2.554 0 0 1-.60952 1.87475 3.73723 3.73723 0 0 1-2.20274.79674l-1.406.14077a5.69655 5.69655 0 0 0-4.05426 1.87475 6.12837 6.12837 0 0 0-1.289 3.98374v9.8425a2.601 2.601 0 0 1-.84349 2.08576 3.11907 3.11907 0 0 1-2.10926.7265 3.02876 3.02876 0 0 1-2.08549-.7265 2.63739 2.63739 0 0 1-.82025-2.08576v-18.13825a2.50822 2.50822 0 0 1 .82025-2.01524 3.02066 3.02066 0 0 1 2.03875-.703 2.82175 2.82175 0 0 1 1.9685.67949 2.49264 2.49264 0 0 1 .75 1.945v1.87475a6.93247 6.93247 0 0 1 2.648-3.187 8.11645 8.11645 0 0 1 3.91349-1.26551l.65626-.04674a2.52471 2.52471 0 0 1 1.92149.51551zm24.27827.23424a2.63611 2.63611 0 0 1 .79675 2.01551v18.51326q0 5.38919-2.99949 8.155-3.00018 2.76511-8.85826 2.76525a17.2252 17.2252 0 0 1-8.53026-1.92149 2.93985 2.93985 0 0 1-1.734-2.484 2.53495 2.53495 0 0 1 .492-1.64051 1.57658 1.57658 0 0 1 1.289-.60925 3.2559 3.2559 0 0 1 1.031.211q.60871.21073 1.26551.492a26.9637 26.9637 0 0 0 3.023 1.078 11.4026 11.4026 0 0 0 3.07.375q6.13934 0 6.13975-5.99925v-2.99976a7.15491 7.15491 0 0 1-2.9995 2.97626 9.38 9.38 0 0 1-4.4995 1.05449 9.9282 9.9282 0 0 1-5.31949-1.4295 9.81685 9.81685 0 0 1-3.63252-4.00725 12.94029 12.94029 0 0 1-1.31224-5.95224 13.28111 13.28111 0 0 1 1.289-5.976 9.5808 9.5808 0 0 1 3.63224-4.03048 10.05342 10.05342 0 0 1 5.343-1.4295 9.3799 9.3799 0 0 1 4.4995 1.0545 7.16037 7.16037 0 0 1 2.9995 2.976v-1.21849a2.57691 2.57691 0 0 1 .797-1.9685 3.34114 3.34114 0 0 1 4.218 0zm-6.585 15.60751a7.44721 7.44721 0 0 0 1.57-5.015 7.52394 7.52394 0 0 0-1.57-5.062 6.13921 6.13921 0 0 0-8.741 0 7.44734 7.44734 0 0 0-1.5935 5.062 7.37181 7.37181 0 0 0 1.5935 5.015 6.13921 6.13921 0 0 0 8.741 0zm17.71624 5.95225a10.04447 10.04447 0 0 1-4.101-4.17125 13.2205 13.2205 0 0 1-1.453-6.32751 13.08613 13.08613 0 0 1 1.453-6.30375 10.08613 10.08613 0 0 1 4.101-4.148 13.79989 13.79989 0 0 1 12.32637 0 9.95033 9.95033 0 0 1 4.07776 4.148 13.26838 13.26838 0 0 1 1.4295 6.30375 13.405 13.405 0 0 1-1.4295 6.32751 9.91057 9.91057 0 0 1-4.07776 4.17125 13.79768 13.79768 0 0 1-12.32637 0zm10.47526-4.968a10.90427 10.90427 0 0 0 0-11.03776 5.17225 5.17225 0 0 0-4.312-1.89825 5.23674 5.23674 0 0 0-4.33524 1.89825 10.83107 10.83107 0 0 0-.0235 11.03776 5.19817 5.19817 0 0 0 4.312 1.87475 5.2531 5.2531 0 0 0 4.35874-1.87475zm19.12209 4.38226a13.459 13.459 0 0 1-5.27275-5.85877 22.79727 22.79727 0 0 1 0-17.99776 13.46277 13.46277 0 0 1 5.27275-5.85849 15.54643 15.54643 0 0 1 8.10852-2.03888 17.32452 17.32452 0 0 1 5.92874 1.00762 14.42178 14.42178 0 0 1 4.851 2.88251 2.18507 2.18507 0 0 1 .75 1.6405 1.84219 1.84219 0 0 1-.375 1.14825 1.09837 1.09837 0 0 1-.8905.492 2.64422 2.64422 0 0 1-1.35926-.51549 17.51718 17.51718 0 0 0-4.33524-2.62449 12.3968 12.3968 0 0 0-4.476-.75q-5.43783 0-8.36626 3.53849-2.92965 3.53958-2.92925 10.05351 0 6.56244 2.92925 10.10026 2.92884 3.53916 8.36626 3.53849a12.433 12.433 0 0 0 4.4525-.74974 17.27813 17.27813 0 0 0 4.35874-2.62476 2.65156 2.65156 0 0 1 1.35926-.51549 1.11463 1.11463 0 0 1 .8905.46875 1.81835 1.81835 0 0 1 .375 1.17175 2.18327 2.18327 0 0 1-.75 1.64024 14.39553 14.39553 0 0 1-4.851 2.88251 17.31835 17.31835 0 0 1-5.92874 1.00775 15.549 15.549 0 0 1-8.10852-2.03876zm28.56649.539a9.67747 9.67747 0 0 1-3.79651-4.148 15.32258 15.32258 0 0 1 0-12.514 9.6851 9.6851 0 0 1 3.79651-4.148 10.99322 10.99322 0 0 1 5.6945-1.45274 11.12115 11.12115 0 0 1 5.718 1.45274 9.64371 9.64371 0 0 1 3.81974 4.148 15.32258 15.32258 0 0 1 0 12.514 9.63618 9.63618 0 0 1-3.81974 4.148 11.11324 11.11324 0 0 1-5.718 1.45273 10.98543 10.98543 0 0 1-5.6945-1.45273zm10.8735-3.91377q1.80383-2.2253 1.8045-6.49124a10.04952 10.04952 0 0 0-1.828-6.44451 6.983 6.983 0 0 0-10.31126 0 10.05111 10.05111 0 0 0-1.82774 6.44451q0 4.218 1.80451 6.468a7.11175 7.11175 0 0 0 10.358.02323zM296 128.84341v12.7015a1.71027 1.71027 0 0 1-1.87475 1.87475 1.9523 1.9523 0 0 1-1.40626-.492 1.81817 1.81817 0 0 1-.5155-1.38276v-12.467a7.07757 7.07757 0 0 0-1.242-4.64 4.9409 4.9409 0 0 0-3.96051-1.453 6.687 6.687 0 0 0-5.015 1.92149 7.13075 7.13075 0 0 0-1.87475 5.2025v11.436a1.70994 1.70994 0 0 1-1.87475 1.87475 1.95164 1.95164 0 0 1-1.406-.492 1.81817 1.81817 0 0 1-.5155-1.38276v-19.77846a1.83634 1.83634 0 0 1 .5155-1.35925 1.89926 1.89926 0 0 1 1.406-.51577 1.75927 1.75927 0 0 1 1.33575.51577 1.82407 1.82407 0 0 1 .49226 1.31224v2.39025a7.68521 7.68521 0 0 1 3.14025-3.2105 9.42362 9.42362 0 0 1 4.593-1.10124q8.20132 0 8.20226 9.04549zM28.76516 156.27666a11.45912 11.45912 0 0 1-2.05374 3.69674 3.72889 3.72889 0 0 1-2.87524 1.23224 47.618 47.618 0 0 1-6.16124 1.23225s2.87524.41075 6.16124.82151a3.07806 3.07806 0 0 1 2.05375.41074 3.43148 3.43148 0 0 0 2.87523-1.23224zm37.29306 0a11.45933 11.45933 0 0 0 2.05378 3.69674 3.72891 3.72891 0 0 0 2.87525 1.23224 47.61792 47.61792 0 0 0 6.16124 1.23224s-2.87526.41075-6.572.82151a3.078 3.078 0 0 0-2.05374.41074c-2.4645 0-2.87527-1.23224-2.87527-1.23224z" class="cls-2"/><circle cx="47.575" cy="115.612" r="44.361" class="cls-3"/><circle cx="47.575" cy="115.612" r="42.718" fill="#e6f5f8"/><circle cx="47.575" cy="116.434" r="34.914" fill="#d0e8f0"/><g id="Body"><path d="M27.03705 132.864s2.87524 46.41464 2.87524 47.23614c0 .41075.41076 1.23224-1.643 2.05375s-8.62573 2.46449-8.62573 2.46449h9.858c4.51824 0 4.51824-3.69675 4.51824-4.51824s1.2322-18.48374 1.2322-18.48374.41075 20.94819.41075 21.7697-.41075 2.05374-3.286 2.87526c-2.05374.41073-8.215 1.643-8.215 1.643H33.609c5.75048 0 5.75048-3.69676 5.75048-3.69676l1.23225-18.4837s.41076 18.4837.41076 20.53745c0 1.643-1.23225 2.87525-5.75049 3.69674-2.87527.8215-6.572 1.643-6.572 1.643h10.67953c5.33974-.41074 6.16124-4.10749 6.16124-4.10749l9.03648-46.0039z" class="cls-6"/><path d="M68.112 132.864s-2.87527 46.41464-2.87527 47.23614c0 .41075-.41075 1.23224 1.643 2.05375s8.62574 2.46449 8.62574 2.46449h-9.858c-4.51824 0-4.51824-3.69675-4.51824-4.51824S59.897 161.6164 59.897 161.6164s-.41075 20.94819-.41075 21.7697.41075 2.05374 3.286 2.87526c2.05374.41073 8.215 1.643 8.215 1.643H61.54c-5.75049 0-5.75049-3.69676-5.75049-3.69676l-1.23225-18.4837s-.41076 18.4837-.41076 20.53745c0 1.643 1.23225 2.87525 5.75049 3.69674 2.87525.8215 6.572 1.643 6.572 1.643H55.78948c-5.33973-.41074-6.16123-4.10749-6.16123-4.10749l-9.03648-46.00391zm.4107-22.59124a20.59712 20.59712 0 0 1-20.53745 20.53745c-11.09023 0-21.03331-9.44722-21.03331-20.53745S36.895 89.73531 47.98526 89.73531a20.59711 20.59711 0 0 1 20.53744 20.53745z" class="cls-6"/><g clip-path="url(#clip-path)"><circle cx="48.233" cy="121.363" r="36.557" class="cls-6"/></g><path fill="#e34e3b" d="M67.29046 132.864s2.46449-21.7697-.82151-29.98469c-6.16123-14.37621-20.53745-13.144-20.53745-13.144s8.215 3.286 8.62573 15.60846c.41075 8.62573 0 21.35895 0 21.35895z" opacity=".22"/></g><g id="Face"><circle cx="39.36" cy="99.183" r="2.875" fill="#fbdfc3" opacity=".5"/><path d="M54.968 141.07894c0 6.98274-3.286 11.501-7.39348 11.501s-7.39352-5.33977-7.39352-12.3225c0 0 3.286 6.572 7.80423 6.572s6.98277-5.7505 6.98277-5.7505z" class="cls-12"/><path d="M54.968 141.07894c0 4.51824-3.286 6.98274-7.39348 6.98274s-6.98274-3.286-6.98274-7.39349c0 0 3.286 4.10749 7.80423 4.10749a7.79965 7.79965 0 0 0 6.57199-3.69674z" class="cls-13"/><circle cx="61.951" cy="121.774" r="12.733" class="cls-2"/><circle cx="33.198" cy="121.774" r="12.733" class="cls-2"/><circle cx="61.951" cy="121.774" r="9.858" class="cls-13"/><circle cx="32.377" cy="121.774" r="9.858" class="cls-13"/><circle cx="32.377" cy="120.541" r="2.875" class="cls-12"/><circle cx="61.951" cy="120.541" r="2.875" class="cls-12"/></g><path d="M2.39211 126.70272A1.94033 1.94033 0 0 1 .33836 124.649v-16.43a1.94032 1.94032 0 0 1 2.05375-2.05374 1.94032 1.94032 0 0 1 2.05374 2.05374v16.43a1.94032 1.94032 0 0 1-2.05374 2.05374zm89.5433 0a1.94033 1.94033 0 0 1-2.05375-2.05375v-16.43a1.94032 1.94032 0 0 1 2.05375-2.05374 1.94032 1.94032 0 0 1 2.05374 2.05374v16.43a1.94032 1.94032 0 0 1-2.05374 2.05374z" class="cls-3"/><circle cx="33.609" cy="82.753" r="2.054" class="cls-13"/><path d="M18.82207 138.20369a1.509 1.509 0 0 1-1.23225-.41075 34.88686 34.88686 0 0 1-7.39348-21.76971 36.6524 36.6524 0 0 1 4.929-18.48371 40.19986 40.19986 0 0 1 13.144-13.144 1.8062 1.8062 0 0 1 2.05375.41075 1.8062 1.8062 0 0 1-.41075 2.05374 33.15241 33.15241 0 0 0-16.84071 28.75244 32.37112 32.37112 0 0 0 6.98273 20.12671 1.43045 1.43045 0 0 1-.41075 2.05374c-.41079.41079-.41079.41079-.82154.41079z" class="cls-13"/></svg>